<?xml version="1.0" encoding="utf-8"?>
<!-- Generator: Adobe Illustrator 16.0.0, SVG Export Plug-In . SVG Version: 6.00 Build 0)  -->
<!DOCTYPE svg PUBLIC "-//W3C//DTD SVG 1.1//EN" "http://www.w3.org/Graphics/SVG/1.1/DTD/svg11.dtd">
<svg version="1.1" id="Layer_1" xmlns="http://www.w3.org/2000/svg" xmlns:xlink="http://www.w3.org/1999/xlink" x="0px" y="0px"
	 width="747.417px" height="52.75px" viewBox="-1.418 -1.914 747.417 52.75" enable-background="new -1.418 -1.914 747.417 52.75"
	 xml:space="preserve">
<g>
	<g>
		<path fill="#F1677B" d="M71.258,39.798c0.98,0.982,1.472,2.146,1.472,3.496s-0.49,2.537-1.472,3.568
			c-0.98,0.932-2.146,1.396-3.495,1.396c-1.35,0-2.538-0.465-3.567-1.396L47.052,31.707v11.551c0,1.373-0.479,2.537-1.436,3.494
			s-2.146,1.436-3.567,1.436c-1.374,0-2.552-0.479-3.532-1.436s-1.471-2.121-1.471-3.494V6.175c0-1.324,0.489-2.477,1.471-3.459
			c0.98-0.979,2.158-1.471,3.532-1.471c1.422,0,2.611,0.491,3.567,1.471c0.957,0.982,1.436,2.135,1.436,3.459v11.551l17.144-15.01
			c1.029-0.979,2.219-1.471,3.567-1.471c1.35,0,2.514,0.491,3.495,1.471c0.98,0.982,1.472,2.146,1.472,3.496
			s-0.49,2.514-1.472,3.494l-17.217,15.01L71.258,39.798z"/>
		<path fill="#F1677B" d="M93.477,36.785h-5.959v6.475c0,1.373-0.479,2.537-1.436,3.494s-2.122,1.436-3.494,1.436
			c-1.374,0-2.539-0.479-3.495-1.436s-1.436-2.121-1.436-3.494V5.957c0-1.373,0.479-2.537,1.436-3.494
			c0.957-0.957,2.121-1.436,3.495-1.436h12.875c2.451,0,4.771,0.467,6.952,1.398c2.183,0.932,4.083,2.207,5.702,3.826
			s2.895,3.52,3.826,5.701c0.931,2.184,1.397,4.5,1.397,6.953c0,3.237-0.771,6.193-2.316,8.865
			c-1.546,2.676-3.595,4.797-6.145,6.365l5.592,5.443c0.932,0.98,1.397,2.16,1.397,3.531c0,1.375-0.49,2.551-1.472,3.529
			c-0.884,0.982-2.013,1.475-3.385,1.475c-1.374,0-2.551-0.49-3.531-1.475L93.477,36.785z M103.483,18.905
			c0-1.077-0.209-2.108-0.625-3.09c-0.417-0.979-0.993-1.839-1.729-2.575c-0.736-0.736-1.595-1.313-2.575-1.729
			c-0.98-0.418-2.013-0.625-3.09-0.625h-7.946v16.039h7.946c1.077,0,2.107-0.209,3.09-0.625c0.98-0.416,1.839-0.993,2.575-1.729
			c0.735-0.735,1.313-1.582,1.729-2.539C103.274,21.076,103.483,20.035,103.483,18.905z"/>
		<path fill="#F1677B" d="M143.802,38.253c1.373,0,2.539,0.49,3.495,1.473c0.957,0.98,1.435,2.137,1.435,3.457
			c0,1.426-0.479,2.611-1.435,3.568c-0.956,0.957-2.122,1.436-3.495,1.436H122.76c-1.275,0-2.416-0.479-3.421-1.436
			c-1.007-0.957-1.509-2.145-1.509-3.568V6.177c0-1.275,0.466-2.428,1.397-3.459c0.932-1.029,2.107-1.545,3.531-1.545h21.042
			c1.373,0,2.539,0.492,3.495,1.473s1.435,2.158,1.435,3.531c0,1.423-0.479,2.601-1.435,3.531c-0.956,0.933-2.122,1.398-3.495,1.398
			h-16.188v8.389h11.257c1.325,0,2.478,0.49,3.458,1.471c0.98,0.981,1.473,2.158,1.473,3.531c0,1.375-0.491,2.539-1.473,3.496
			c-0.98,0.957-2.133,1.436-3.458,1.436h-11.257v8.828h16.188L143.802,38.253L143.802,38.253z"/>
		<path fill="#F1677B" d="M171.319,1.173c2.354,0,4.609,0.43,6.77,1.287c2.157,0.859,4.047,2.061,5.666,3.605
			c1.618,1.545,2.917,3.373,3.898,5.48c0.979,2.109,1.471,4.391,1.471,6.843v24.794c0,1.275-0.454,2.381-1.36,3.313
			c-0.908,0.934-2.022,1.424-3.349,1.473c-1.324,0-2.465-0.43-3.421-1.289c-0.957-0.855-1.436-1.949-1.436-3.271v-8.609h-16.406
			v8.391c0,1.273-0.491,2.391-1.473,3.348c-0.98,0.957-2.108,1.436-3.385,1.436c-1.275,0-2.403-0.441-3.384-1.324
			c-0.981-0.883-1.473-1.963-1.473-3.236V18.981c0.049-2.452,0.526-4.757,1.436-6.916c0.907-2.157,2.158-4.047,3.752-5.666
			c1.594-1.618,3.471-2.894,5.628-3.825C166.412,1.64,168.767,1.173,171.319,1.173z M179.559,18.979
			c0-1.128-0.209-2.194-0.625-3.201c-0.417-1.005-1.006-1.876-1.767-2.612c-0.761-0.735-1.644-1.324-2.648-1.766
			c-1.006-0.441-2.097-0.662-3.273-0.662c-1.08,0-2.108,0.209-3.09,0.625c-0.98,0.417-1.839,0.969-2.575,1.656
			c-0.734,0.688-1.323,1.521-1.767,2.501c-0.44,0.981-0.661,2.013-0.661,3.09v6.622h16.406V18.979L179.559,18.979z"/>
		<path fill="#F1677B" d="M221.57,1.173c1.422,0,2.611,0.49,3.567,1.472c0.957,0.981,1.436,2.159,1.436,3.53
			c0,1.424-0.479,2.602-1.436,3.533s-2.146,1.397-3.567,1.397h-8.24v32.077c0,1.426-0.467,2.611-1.397,3.568
			c-0.932,0.957-2.108,1.438-3.531,1.438c-1.424,0-2.601-0.48-3.531-1.438c-0.934-0.957-1.397-2.145-1.397-3.568V11.106h-8.313
			c-1.374,0-2.539-0.466-3.495-1.397s-1.436-2.108-1.436-3.533c0-1.373,0.479-2.549,1.436-3.53s2.121-1.472,3.495-1.472H221.57z"/>
		<path fill="#F1677B" d="M235.18,1.248c1.325,0,2.465,0.49,3.421,1.471c0.957,0.982,1.436,2.134,1.436,3.457v37.084
			c0,1.373-0.479,2.537-1.436,3.494s-2.097,1.436-3.421,1.436c-1.423,0-2.611-0.479-3.567-1.436s-1.436-2.121-1.436-3.494V6.175
			c0-1.323,0.479-2.475,1.436-3.457C232.569,1.738,233.758,1.248,235.18,1.248z"/>
		<path fill="#F1677B" d="M269.172,44.951c-0.394,0.98-1.02,1.766-1.876,2.354c-0.859,0.59-1.779,0.883-2.76,0.883
			c-0.933,0-1.839-0.316-2.722-0.955c-0.884-0.637-1.521-1.398-1.913-2.281L244.525,7.943c-0.491-1.275-0.454-2.539,0.109-3.789
			c0.563-1.251,1.482-2.146,2.759-2.686c1.274-0.49,2.538-0.453,3.789,0.109c1.25,0.564,2.121,1.508,2.611,2.834l10.742,25.162
			l10.596-25.162c0.489-1.324,1.36-2.269,2.611-2.834c1.251-0.563,2.514-0.6,3.789-0.109c1.274,0.539,2.183,1.435,2.724,2.686
			c0.538,1.25,0.563,2.514,0.072,3.789L269.172,44.951z"/>
		<path fill="#F1677B" d="M303.899,1.394c2.354,0,4.609,0.43,6.769,1.288c2.158,0.858,4.048,2.06,5.666,3.604
			c1.619,1.545,2.917,3.373,3.899,5.481c0.979,2.108,1.471,4.39,1.471,6.842v24.796c0,1.273-0.454,2.379-1.36,3.311
			c-0.908,0.934-2.022,1.424-3.349,1.473c-1.325,0-2.465-0.43-3.421-1.287c-0.957-0.857-1.436-1.949-1.436-3.273V19.203
			c0-1.129-0.209-2.195-0.625-3.201c-0.417-1.006-1.006-1.877-1.767-2.612c-0.761-0.736-1.645-1.324-2.648-1.767
			c-1.006-0.44-2.098-0.662-3.273-0.662c-1.08,0-2.108,0.209-3.09,0.625c-0.98,0.418-1.839,0.97-2.575,1.656
			c-0.734,0.688-1.324,1.521-1.767,2.502c-0.44,0.98-0.661,2.012-0.661,3.09v24.574c0,1.273-0.491,2.391-1.473,3.348
			c-0.98,0.957-2.108,1.436-3.385,1.436c-1.275,0-2.403-0.441-3.384-1.324c-0.981-0.883-1.472-1.961-1.472-3.236V19.205
			c0.048-2.453,0.524-4.758,1.435-6.916c0.907-2.158,2.158-4.047,3.752-5.666s3.471-2.895,5.628-3.826
			C298.992,1.861,301.348,1.394,303.899,1.394z"/>
		<path fill="#F1677B" d="M344.144,1.173c2.354,0,4.609,0.43,6.77,1.287c2.158,0.859,4.047,2.061,5.666,3.605
			s2.917,3.373,3.898,5.48c0.979,2.109,1.472,4.391,1.472,6.843v24.794c0,1.275-0.454,2.381-1.36,3.313
			c-0.908,0.934-2.023,1.424-3.349,1.473c-1.325,0-2.465-0.43-3.421-1.289c-0.957-0.855-1.436-1.949-1.436-3.271v-8.609h-16.407
			v8.391c0,1.273-0.49,2.391-1.472,3.348c-0.98,0.957-2.109,1.436-3.385,1.436s-2.403-0.441-3.384-1.324
			c-0.981-0.883-1.473-1.963-1.473-3.236V18.981c0.048-2.452,0.525-4.757,1.436-6.916c0.907-2.157,2.158-4.047,3.752-5.666
			c1.594-1.618,3.471-2.894,5.628-3.825C339.239,1.64,341.593,1.173,344.144,1.173z M352.385,18.979
			c0-1.128-0.209-2.194-0.625-3.201c-0.417-1.005-1.007-1.876-1.767-2.612c-0.761-0.735-1.645-1.324-2.648-1.766
			c-1.006-0.441-2.098-0.662-3.273-0.662c-1.08,0-2.108,0.209-3.09,0.625c-0.981,0.417-1.84,0.969-2.575,1.656
			c-0.734,0.688-1.324,1.521-1.767,2.501c-0.44,0.981-0.662,2.013-0.662,3.09v6.622h16.407V18.979L352.385,18.979z"/>
	</g>
	<g>
		<g>
			<path fill="#F1677B" d="M410.678,36.785h-5.96v6.475c0,1.373-0.479,2.537-1.435,3.494s-2.122,1.436-3.495,1.436
				s-2.538-0.479-3.494-1.436c-0.957-0.957-1.435-2.121-1.435-3.494V5.957c0-1.373,0.478-2.537,1.435-3.494
				c0.956-0.957,2.121-1.436,3.494-1.436h12.876c2.452,0,4.771,0.467,6.953,1.398s4.083,2.207,5.701,3.826
				c1.619,1.619,2.894,3.52,3.826,5.701c0.932,2.184,1.396,4.5,1.396,6.953c0,3.237-0.771,6.193-2.316,8.865
				c-1.546,2.676-3.595,4.797-6.146,6.365l5.592,5.443c0.934,0.98,1.398,2.16,1.398,3.531c0,1.375-0.491,2.551-1.472,3.529
				c-0.885,0.982-2.014,1.475-3.387,1.475s-2.551-0.49-3.529-1.475L410.678,36.785z M420.686,18.905c0-1.077-0.209-2.108-0.625-3.09
				c-0.418-0.979-0.993-1.839-1.729-2.575c-0.734-0.736-1.595-1.313-2.575-1.729c-0.979-0.418-2.012-0.625-3.09-0.625h-7.946v16.039
				h7.946c1.078,0,2.108-0.209,3.09-0.625c0.98-0.416,1.84-0.993,2.575-1.729c0.736-0.735,1.313-1.582,1.729-2.539
				C420.477,21.076,420.686,20.035,420.686,18.905z"/>
			<path fill="#F1677B" d="M452.615,1.173c2.354,0,4.61,0.43,6.77,1.287c2.157,0.859,4.048,2.061,5.665,3.605
				c1.618,1.545,2.917,3.373,3.899,5.48c0.979,2.109,1.472,4.391,1.472,6.843v24.794c0,1.275-0.454,2.381-1.359,3.313
				c-0.908,0.934-2.023,1.424-3.35,1.473c-1.324,0-2.465-0.43-3.421-1.289c-0.957-0.855-1.436-1.949-1.436-3.271v-8.609h-16.407
				v8.391c0,1.273-0.49,2.391-1.471,3.348c-0.982,0.957-2.109,1.436-3.387,1.436c-1.274,0-2.401-0.441-3.385-1.324
				c-0.982-0.883-1.471-1.963-1.471-3.236V18.981c0.048-2.452,0.524-4.757,1.435-6.916c0.906-2.157,2.157-4.047,3.752-5.666
				c1.595-1.618,3.472-2.894,5.629-3.825C447.709,1.64,450.066,1.173,452.615,1.173z M460.857,18.979
				c0-1.128-0.209-2.194-0.625-3.201c-0.417-1.005-1.006-1.876-1.768-2.612c-0.761-0.735-1.645-1.324-2.646-1.766
				c-1.006-0.441-2.1-0.662-3.274-0.662c-1.079,0-2.107,0.209-3.09,0.625c-0.981,0.417-1.84,0.969-2.575,1.656
				c-0.734,0.688-1.324,1.521-1.766,2.501c-0.442,0.981-0.663,2.013-0.663,3.09v6.622h16.407V18.979L460.857,18.979z"/>
			<path fill="#F1677B" d="M506.106,38.253c1.422,0,2.599,0.49,3.529,1.473c0.933,0.98,1.397,2.137,1.397,3.457
				c0,1.426-0.467,2.611-1.397,3.568c-0.933,0.957-2.107,1.436-3.529,1.436h-25.899c-0.98-0.049-1.84-0.307-2.575-0.77
				c-0.734-0.467-1.301-1.066-1.69-1.803c-0.396-0.736-0.589-1.545-0.589-2.432c0-0.883,0.243-1.766,0.734-2.645l0.073-0.074
				l20.159-29.356h-16.26c-1.324,0-2.479-0.466-3.458-1.397c-0.981-0.932-1.474-2.108-1.474-3.533c0-1.372,0.49-2.549,1.474-3.53
				c0.979-0.981,2.134-1.472,3.458-1.472h25.896c0.932,0.049,1.777,0.32,2.538,0.81c0.76,0.491,1.349,1.116,1.766,1.876
				c0.416,0.762,0.626,1.594,0.626,2.501c0,0.908-0.271,1.804-0.81,2.687l-20.307,29.209h16.335v-0.004H506.106z"/>
			<path fill="#F1677B" d="M550.616,1.173c2.011,0,3.899,0.393,5.665,1.177s3.311,1.864,4.636,3.237
				c1.324,1.373,2.393,2.955,3.2,4.746c0.81,1.791,1.262,3.715,1.361,5.774v27.075c0,1.426-0.491,2.611-1.474,3.568
				c-0.981,0.957-2.134,1.434-3.458,1.434c-1.424,0-2.61-0.477-3.566-1.434c-0.957-0.957-1.437-2.145-1.437-3.568V16.697
				c0-1.422-0.479-2.611-1.435-3.568c-0.957-0.957-2.123-1.435-3.495-1.435c-1.374,0-2.551,0.479-3.531,1.435
				c-0.98,0.957-1.472,2.146-1.472,3.568v26.486c0,1.426-0.479,2.611-1.437,3.568s-2.121,1.434-3.493,1.434
				c-1.374,0-2.538-0.477-3.495-1.434c-0.956-0.957-1.437-2.145-1.437-3.568V16.697c0-1.422-0.479-2.611-1.435-3.568
				c-0.956-0.955-2.146-1.435-3.568-1.435c-1.374,0-2.538,0.479-3.495,1.435c-0.956,0.957-1.435,2.146-1.435,3.568v26.486
				c0,1.426-0.479,2.611-1.437,3.568c-0.954,0.957-2.146,1.434-3.566,1.434c-1.374,0-2.538-0.477-3.495-1.434
				c-0.956-0.957-1.436-2.145-1.436-3.568V16.108c0-1.913,0.381-3.776,1.142-5.592c0.76-1.813,1.813-3.408,3.164-4.782
				c1.348-1.373,2.93-2.477,4.745-3.311c1.813-0.834,3.752-1.252,5.813-1.252c1.863,0,3.616,0.345,5.262,1.031
				c1.644,0.687,3.199,1.618,4.673,2.795c1.422-1.127,2.952-2.047,4.599-2.76C546.924,1.53,548.702,1.173,550.616,1.173z"/>
			<path fill="#F1677B" d="M585.047,1.248c1.422,0,2.624,0.49,3.605,1.471c0.979,0.982,1.472,2.134,1.472,3.457v25.311
				c-0.05,2.354-0.504,4.523-1.361,6.512c-0.856,1.986-2.034,3.729-3.529,5.225c-1.497,1.496-3.265,2.688-5.298,3.568
				c-2.036,0.883-4.23,1.35-6.587,1.395c-1.322,0-2.465-0.465-3.421-1.395c-0.957-0.932-1.435-2.109-1.435-3.531
				c0-1.373,0.478-2.551,1.435-3.531c0.956-0.98,2.099-1.473,3.421-1.473c0.934,0,1.827-0.172,2.688-0.516
				c0.856-0.342,1.594-0.82,2.207-1.436c0.613-0.613,1.104-1.336,1.472-2.172c0.368-0.832,0.552-1.715,0.552-2.646V6.175
				c0-1.323,0.468-2.475,1.398-3.457C582.594,1.738,583.725,1.248,585.047,1.248z"/>
			<path fill="#F1677B" d="M620.804,38.253c1.373,0,2.538,0.49,3.495,1.473c0.956,0.98,1.437,2.137,1.437,3.457
				c0,1.426-0.479,2.611-1.437,3.568s-2.122,1.436-3.495,1.436h-21.041c-1.275,0-2.418-0.479-3.423-1.436
				c-1.006-0.957-1.508-2.145-1.508-3.568V6.177c0-1.275,0.466-2.428,1.397-3.459c0.932-1.029,2.106-1.545,3.53-1.545h21.042
				c1.373,0,2.538,0.492,3.495,1.473c0.956,0.98,1.437,2.158,1.437,3.531c0,1.423-0.479,2.601-1.437,3.531
				c-0.957,0.933-2.122,1.398-3.495,1.398h-16.186v8.389h11.257c1.324,0,2.479,0.49,3.458,1.471c0.98,0.981,1.473,2.158,1.473,3.531
				c0,1.375-0.49,2.539-1.473,3.496c-0.979,0.957-2.134,1.436-3.458,1.436h-11.257v8.828h16.188V38.253z"/>
			<path fill="#F1677B" d="M648.321,1.394c2.354,0,4.61,0.43,6.77,1.288c2.157,0.858,4.046,2.06,5.665,3.604
				c1.618,1.545,2.917,3.373,3.899,5.481c0.979,2.108,1.472,4.39,1.472,6.842v24.796c0,1.273-0.454,2.379-1.361,3.311
				c-0.906,0.934-2.021,1.424-3.348,1.473c-1.324,0-2.465-0.43-3.421-1.287c-0.957-0.857-1.436-1.949-1.436-3.273V19.203
				c0-1.129-0.209-2.195-0.625-3.201c-0.417-1.006-1.008-1.877-1.768-2.612c-0.761-0.736-1.645-1.324-2.646-1.767
				c-1.008-0.44-2.1-0.662-3.274-0.662c-1.079,0-2.109,0.209-3.09,0.625c-0.982,0.418-1.84,0.97-2.575,1.656
				c-0.736,0.688-1.324,1.521-1.766,2.502c-0.442,0.98-0.663,2.012-0.663,3.09v24.574c0,1.273-0.49,2.391-1.473,3.348
				c-0.981,0.957-2.107,1.436-3.385,1.436c-1.274,0-2.402-0.441-3.385-1.324s-1.471-1.961-1.471-3.236V19.205
				c0.048-2.453,0.524-4.758,1.435-6.916c0.906-2.158,2.157-4.047,3.752-5.666c1.594-1.619,3.47-2.895,5.629-3.826
				C643.414,1.861,645.771,1.394,648.321,1.394z"/>
			<path fill="#F1677B" d="M688.566,1.173c2.354,0,4.608,0.43,6.77,1.287c2.157,0.859,4.046,2.061,5.665,3.605
				c1.618,1.545,2.917,3.373,3.899,5.48c0.979,2.109,1.472,4.391,1.472,6.843v24.794c0,1.275-0.454,2.381-1.361,3.313
				c-0.906,0.934-2.021,1.424-3.348,1.473c-1.324,0-2.465-0.43-3.421-1.289c-0.957-0.855-1.438-1.949-1.438-3.271v-8.609h-16.405
				v8.391c0,1.273-0.49,2.391-1.473,3.348c-0.981,0.957-2.107,1.436-3.385,1.436c-1.275,0-2.403-0.441-3.385-1.324
				c-0.982-0.883-1.472-1.963-1.472-3.236V18.981c0.049-2.452,0.525-4.757,1.436-6.916c0.906-2.157,2.157-4.047,3.752-5.666
				c1.594-1.618,3.47-2.894,5.629-3.825C683.659,1.64,686.016,1.173,688.566,1.173z M696.807,18.979
				c0-1.128-0.209-2.194-0.625-3.201c-0.419-1.005-1.008-1.876-1.768-2.612c-0.761-0.735-1.645-1.324-2.646-1.766
				c-1.008-0.441-2.1-0.662-3.274-0.662c-1.079,0-2.109,0.209-3.09,0.625c-0.982,0.417-1.84,0.969-2.575,1.656
				c-0.736,0.688-1.324,1.521-1.766,2.501c-0.442,0.981-0.663,2.013-0.663,3.09v6.622h16.406L696.807,18.979L696.807,18.979z"/>
		</g>
	</g>
	<path fill="#72C7A8" d="M30.293,41.117c2.82,2.67,1.712,8.76-3.319,8.76c-0.84,0-1.58-0.17-2.198-0.479h-0.011
		c-0.211-0.104-0.41-0.213-0.602-0.354l-0.818-0.729c0-0.01-0.021-0.021-0.021-0.021l-21.25-19.1l-0.021-0.02
		c-0.101-0.051-0.199-0.109-0.299-0.17c-0.191-0.131-0.371-0.26-0.541-0.41c-0.08-0.07-0.16-0.15-0.24-0.23s-0.148-0.16-0.219-0.24
		c-0.15-0.189-0.291-0.379-0.41-0.58c-0.052-0.08-0.102-0.16-0.142-0.238c-0.101-0.2-0.188-0.4-0.271-0.61
		c-0.041-0.09-0.069-0.19-0.102-0.29c-0.329-1.07-0.329-2.25,0-3.32c0.03-0.1,0.061-0.199,0.102-0.289
		c0.069-0.211,0.16-0.42,0.271-0.61c0.04-0.08,0.09-0.16,0.142-0.24c0.108-0.2,0.25-0.399,0.41-0.579
		c0.068-0.08,0.139-0.16,0.219-0.24s0.16-0.16,0.24-0.23c0.17-0.15,0.35-0.279,0.541-0.41c0.1-0.061,0.198-0.119,0.299-0.17
		c0.01-0.02,0.01-0.02,0.021-0.02l22.05-19.82c0.812-0.87,1.979-1.43,3.511-1.43c5.01,0,6.131,6.039,3.352,8.729
		c-0.189,0.181-0.391,0.351-0.61,0.49c-0.021,0.04-0.05,0.08-0.079,0.11l-0.721,0.649l-0.38,0.341l-17.11,15.379l17.11,15.379
		l0.729,0.67C30.054,40.898,30.175,41.005,30.293,41.117z"/>
	<path fill="#72C7A8" d="M714.287,7.806c-2.82-2.67-1.709-8.76,3.32-8.76c0.84,0,1.58,0.17,2.198,0.479h0.013
		c0.209,0.101,0.41,0.21,0.6,0.351l0.82,0.729c0,0.011,0.02,0.021,0.02,0.021l21.25,19.1l0.021,0.02
		c0.1,0.051,0.201,0.11,0.301,0.17c0.189,0.131,0.369,0.26,0.539,0.41c0.08,0.07,0.16,0.15,0.24,0.23s0.148,0.16,0.221,0.24
		c0.15,0.189,0.289,0.379,0.41,0.58c0.049,0.08,0.1,0.16,0.139,0.24c0.104,0.199,0.191,0.399,0.271,0.609
		c0.039,0.09,0.066,0.189,0.1,0.29c0.33,1.069,0.33,2.25,0,3.319c-0.031,0.101-0.061,0.201-0.1,0.291
		c-0.07,0.209-0.16,0.42-0.271,0.609c-0.039,0.08-0.09,0.16-0.139,0.24c-0.111,0.199-0.25,0.4-0.41,0.578
		c-0.07,0.08-0.141,0.16-0.221,0.24s-0.16,0.16-0.24,0.23c-0.17,0.15-0.35,0.279-0.539,0.41c-0.1,0.061-0.201,0.119-0.301,0.17
		c-0.01,0.02-0.01,0.02-0.021,0.02l-22.051,19.82c-0.809,0.871-1.979,1.43-3.51,1.43c-5.01,0-6.129-6.039-3.352-8.729
		c0.189-0.182,0.393-0.352,0.609-0.49c0.021-0.039,0.051-0.08,0.08-0.109l0.721-0.646l0.379-0.344l17.111-15.379L715.385,8.798
		l-0.729-0.67C714.529,8.026,714.409,7.917,714.287,7.806z"/>
</g>
</svg>
